<?xml version="1.0" encoding="UTF-8"?><svg id="uuid-59c29091-1bfc-4157-a912-26239789978d" xmlns="http://www.w3.org/2000/svg" viewBox="0 0 566.67 91.14"><path d="M4.59,7.76c3.32-1.62,8.72-2.92,16.14-3.83L51.8.11H0v11.71c.86-1.62,2.38-2.98,4.59-4.06Z" style="fill:#fdba32; fill-rule:evenodd; stroke-width:0px;"/><path d="M43.97,63.42c10.75-16.81,22.39-37.17,34.94-61.05l-57.62,7.21c-5.09.66-8.92,1.44-11.45,2.34-2.52.9-3.83,1.97-3.94,3.19-.16,1.76,1.51,4.03,5.05,6.77,3.54,2.76,8.27,5.44,14.18,8.05l-4.93,4.16c-7.01-3.48-12.35-6.9-15.97-10.28-2.02-1.9-3.42-3.72-4.22-5.45v72.69h24.44c5.43-6.5,11.94-15.69,19.53-27.61Z" style="fill:#fdba32; fill-rule:evenodd; stroke-width:0px;"/><path d="M87.03,1.7c-12.5,24.01-24.25,44.89-35.23,62.73-7.18,11.64-13.05,20.49-17.63,26.6h53.99V1.52c-.37.07-.74.14-1.13.19Z" style="fill:#fdba32; fill-rule:evenodd; stroke-width:0px;"/><polygon points="364.06 91.09 409.92 91.09 409.92 85.12 374.85 85.12 374.85 44.91 406.77 44.91 406.77 39.23 374.85 39.23 374.85 6.12 409.02 6.12 409.02 .44 364.06 .44 364.06 91.09" style="fill:#fff; fill-rule:evenodd; stroke-width:0px;"/><path d="M422.95,91.14h4.95V21.87c8.52,5.71,60.85,69.24,64.29,69.24h1.8V.12h-5.4l-.13,69.98L423.57.17l-.61.57v90.4Z" style="fill:#fff; fill-rule:evenodd; stroke-width:0px;"/><polygon points="101.93 6.9 130.26 6.9 130.26 91.05 140.15 91.05 140.15 6.9 168.03 6.9 168.03 .16 101.93 .16 101.93 6.9" style="fill:#fff; fill-rule:evenodd; stroke-width:0px;"/><path d="M313.32,85.69c-46.65,0-44.06-81.13-1.37-81.13h4.56c17.42,0,24.51,11.27,30.08,12.76l2.85-10.91C341.79,2.39,331.74,0,320.16,0h-5.47c-25.77,0-47.86,18.63-47.86,43.3v6.38c0,22.76,19.53,41.02,43.3,41.02h8.2c11.87,0,21.84-4.78,30.08-5.47v-35.55h-9.12v32.36c-5.45.45-10.26,3.65-18.23,3.65h-7.75Z" style="fill:#fff; fill-rule:evenodd; stroke-width:0px;"/><path d="M199.36,42.95c29.95-.1,37.48-40.64,11.37-42.82h-36.87v91h8.54v-47.83c10.71,0,15.99,13.11,20.87,19.59,5.78,7.66,17.17,20.36,22.4,28.18h11.69s-38.02-48.12-38.02-48.12ZM189.61,38.8h-7.19c0-4.71-.57-30.27.27-32.55,2.12-5.78,22.94-2.54,26.74-.31,13.94,8.17,7.85,32.86-19.82,32.86Z" style="fill:#fff; fill-rule:evenodd; stroke-width:0px;"/><rect x="244.01" y=".02" width="9.44" height="91.09" style="fill:#fff; stroke-width:0px;"/><polygon points="500.57 6.9 528.9 6.9 528.9 91.05 538.79 91.05 538.79 6.9 566.67 6.9 566.67 .16 500.57 .16 500.57 6.9" style="fill:#fff; fill-rule:evenodd; stroke-width:0px;"/></svg>